<svg xmlns="http://www.w3.org/2000/svg" width="645" height="645" viewBox="0 0 645 645" version="1.1">
    <path d="M 352.951 170.061 C 335.639 172.610, 325 182.229, 325 195.332 C 325 197.364, 324.369 197.896, 321.268 198.477 C 307.624 201.037, 314.372 207.050, 330.770 206.944 C 340.451 206.881, 346.308 205.373, 346.798 202.817 C 347.190 200.774, 344.686 199.312, 339.997 198.847 C 335.726 198.423, 334.963 197.481, 335.708 193.547 C 336.761 187.989, 339.009 184.884, 343.376 182.952 C 349.182 180.384, 361.300 178.644, 367.972 179.420 C 371.013 179.774, 398.925 188.209, 430 198.164 C 461.075 208.120, 490.731 217.554, 495.902 219.130 C 507.633 222.703, 511.034 224.645, 513.248 229.034 C 514.842 232.192, 514.997 236.827, 514.998 281.227 L 515 329.954 512.449 331.625 C 511.046 332.545, 509.246 334.558, 508.449 336.099 C 506.700 339.481, 506.541 347.141, 508.187 348.787 C 509.102 349.702, 508.903 350.490, 507.312 352.237 C 506.178 353.482, 504.744 355.483, 504.125 356.684 C 502.811 359.236, 502.557 400.753, 503.843 402.780 C 504.469 403.766, 505.295 403.556, 507.445 401.864 C 509.984 399.868, 510.320 399.820, 511.167 401.335 C 512.367 403.479, 513.930 403.449, 515.640 401.250 C 516.937 399.583, 517.051 399.583, 518.050 401.250 C 519.370 403.451, 521.591 403.509, 522.414 401.364 C 522.982 399.884, 523.239 399.907, 525.111 401.601 C 527.134 403.431, 527.212 403.431, 528.553 401.597 C 529.841 399.836, 530.078 399.821, 532.427 401.360 C 533.804 402.262, 535.194 403, 535.518 403 C 535.842 403, 535.970 392.951, 535.803 380.669 L 535.500 358.339 532.861 354.882 C 530.511 351.803, 530.363 351.155, 531.508 348.962 C 534.469 343.296, 533.743 337.543, 529.537 333.337 L 526.074 329.874 525.951 281.687 C 525.884 255.184, 525.396 231.440, 524.868 228.922 C 523.723 223.459, 519.216 217.661, 514.079 215.040 C 509.259 212.581, 380.203 171.366, 373.114 170.021 C 367.003 168.863, 361.009 168.875, 352.951 170.061 M 232.722 330.328 C 234.290 362.151, 224.795 383.322, 195.986 412.242 L 182.297 425.984 186.898 428.655 C 194.851 433.272, 276.937 483.666, 315.682 507.719 C 329.512 516.305, 331.070 517.034, 333.182 515.911 C 334.457 515.233, 354.625 502.907, 378 488.518 C 433.138 454.578, 468.076 433.170, 475.209 428.955 L 480.918 425.582 468.205 413.041 C 453.376 398.413, 444.596 387.055, 438.413 374.500 C 431.433 360.328, 429.694 352.309, 429.684 334.250 C 429.680 325.863, 429.590 319, 429.484 319 C 429.379 319, 423.040 321.980, 415.396 325.623 C 385.510 339.866, 332.690 364, 331.403 364 C 329.919 364, 272.724 338.169, 248.097 326.376 C 239.625 322.319, 232.574 319, 232.429 319 C 232.283 319, 232.416 324.098, 232.722 330.328" stroke="none" fill="#faf9fa" fill-rule="evenodd"/>
    <path d="M 322.891 152.442 C 322.648 152.685, 319.761 153.336, 316.475 153.888 C 313.189 154.441, 265.950 163.033, 211.500 172.983 C 157.050 182.932, 108.675 191.733, 104 192.541 C 99.325 193.349, 93.475 194.424, 91 194.929 C 88.525 195.435, 83.800 196.329, 80.500 196.916 C 77.200 197.503, 64.825 199.773, 53 201.959 C 41.175 204.145, 30.150 206.061, 28.500 206.217 C 25.930 206.459, 25.500 206.911, 25.500 209.366 C 25.500 212.555, 20.527 210.240, 73 231.480 C 84.275 236.043, 104.300 244.168, 117.500 249.535 C 135.879 257.007, 150.752 262.078, 181 271.184 C 202.725 277.724, 224.438 284.264, 229.250 285.716 L 238 288.357 238 302.515 L 238 316.673 233.750 316.586 L 229.500 316.500 229.834 328 C 230.405 347.649, 227.412 361.845, 219.562 376.723 C 213.901 387.451, 206.675 396.497, 192.335 410.804 C 184.364 418.756, 179 424.890, 179 426.051 C 179 427.340, 180.934 429.180, 184.750 431.521 C 187.912 433.461, 203.100 442.748, 218.500 452.159 C 233.900 461.570, 264.725 480.546, 287 494.328 C 309.275 508.110, 328.655 519.563, 330.066 519.780 C 333.233 520.265, 333.714 519.997, 369.841 497.650 C 385.978 487.667, 400.603 478.668, 402.341 477.651 C 404.078 476.634, 413.976 470.559, 424.335 464.151 C 434.694 457.743, 444.594 451.668, 446.335 450.651 C 448.076 449.635, 457.263 444.082, 466.750 438.312 C 481.101 429.584, 484 427.432, 484 425.504 C 484 423.907, 481.747 421.117, 476.750 416.526 C 461.602 402.607, 448.019 385.880, 441.653 373.307 C 434.468 359.115, 431.218 342.192, 432.843 327.430 C 434.011 316.808, 433.435 315.544, 427.765 316.305 L 423.946 316.817 424.223 302.670 L 424.500 288.522 468 275.941 L 511.500 263.360 511.765 295.430 L 512.030 327.500 509.487 329.354 C 505.557 332.219, 504 336.211, 504 343.426 C 504 348.187, 503.460 350.837, 502.004 353.226 C 500.158 356.253, 500.007 358.279, 500.004 380.059 C 500 406.256, 500.325 407.806, 505.594 406.662 C 507.192 406.315, 515.250 405.911, 523.500 405.765 L 538.500 405.500 538.769 382.092 C 539.020 360.189, 538.907 358.433, 536.999 354.773 C 535.249 351.415, 535.114 350.290, 536.049 346.818 C 537.638 340.916, 536.365 335.409, 532.392 331.013 L 529 327.258 529 292.236 L 529 257.214 584.674 234.857 C 619.829 220.740, 640.744 211.832, 641.424 210.687 C 642.882 208.232, 638.976 205, 634.552 205 C 632.777 205, 625.065 203.878, 617.413 202.506 C 595.980 198.665, 593.256 198.172, 582 196.104 C 576.225 195.043, 561.150 192.335, 548.500 190.086 C 508.434 182.965, 393.027 162.102, 379.500 159.536 C 351.969 154.312, 336.848 152, 330.219 152 C 326.432 152, 323.134 152.199, 322.891 152.442 M 352.951 170.061 C 335.639 172.610, 325 182.229, 325 195.332 C 325 197.364, 324.369 197.896, 321.268 198.477 C 307.624 201.037, 314.372 207.050, 330.770 206.944 C 340.451 206.881, 346.308 205.373, 346.798 202.817 C 347.190 200.774, 344.686 199.312, 339.997 198.847 C 335.726 198.423, 334.963 197.481, 335.708 193.547 C 336.761 187.989, 339.009 184.884, 343.376 182.952 C 349.182 180.384, 361.300 178.644, 367.972 179.420 C 371.013 179.774, 398.925 188.209, 430 198.164 C 461.075 208.120, 490.731 217.554, 495.902 219.130 C 507.633 222.703, 511.034 224.645, 513.248 229.034 C 514.842 232.192, 514.997 236.827, 514.998 281.227 L 515 329.954 512.449 331.625 C 511.046 332.545, 509.246 334.558, 508.449 336.099 C 506.700 339.481, 506.541 347.141, 508.187 348.787 C 509.102 349.702, 508.903 350.490, 507.312 352.237 C 506.178 353.482, 504.744 355.483, 504.125 356.684 C 502.811 359.236, 502.557 400.753, 503.843 402.780 C 504.469 403.766, 505.295 403.556, 507.445 401.864 C 509.984 399.868, 510.320 399.820, 511.167 401.335 C 512.367 403.479, 513.930 403.449, 515.640 401.250 C 516.937 399.583, 517.051 399.583, 518.050 401.250 C 519.370 403.451, 521.591 403.509, 522.414 401.364 C 522.982 399.884, 523.239 399.907, 525.111 401.601 C 527.134 403.431, 527.212 403.431, 528.553 401.597 C 529.841 399.836, 530.078 399.821, 532.427 401.360 C 533.804 402.262, 535.194 403, 535.518 403 C 535.842 403, 535.970 392.951, 535.803 380.669 L 535.500 358.339 532.861 354.882 C 530.511 351.803, 530.363 351.155, 531.508 348.962 C 534.469 343.296, 533.743 337.543, 529.537 333.337 L 526.074 329.874 525.951 281.687 C 525.884 255.184, 525.396 231.440, 524.868 228.922 C 523.723 223.459, 519.216 217.661, 514.079 215.040 C 509.259 212.581, 380.203 171.366, 373.114 170.021 C 367.003 168.863, 361.009 168.875, 352.951 170.061 M 232.722 330.328 C 234.290 362.151, 224.795 383.322, 195.986 412.242 L 182.297 425.984 186.898 428.655 C 194.851 433.272, 276.937 483.666, 315.682 507.719 C 329.512 516.305, 331.070 517.034, 333.182 515.911 C 334.457 515.233, 354.625 502.907, 378 488.518 C 433.138 454.578, 468.076 433.170, 475.209 428.955 L 480.918 425.582 468.205 413.041 C 453.376 398.413, 444.596 387.055, 438.413 374.500 C 431.433 360.328, 429.694 352.309, 429.684 334.250 C 429.680 325.863, 429.590 319, 429.484 319 C 429.379 319, 423.040 321.980, 415.396 325.623 C 385.510 339.866, 332.690 364, 331.403 364 C 329.919 364, 272.724 338.169, 248.097 326.376 C 239.625 322.319, 232.574 319, 232.429 319 C 232.283 319, 232.416 324.098, 232.722 330.328" stroke="none" fill="#925FE2" fill-rule="evenodd"/>
</svg>